<?xml version="1.0" standalone="no"?><!DOCTYPE svg PUBLIC "-//W3C//DTD SVG 1.1//EN" "http://www.w3.org/Graphics/SVG/1.1/DTD/svg11.dtd"><svg t="1575423714882" class="icon" viewBox="0 0 1024 1024" version="1.1" xmlns="http://www.w3.org/2000/svg" p-id="3953" xmlns:xlink="http://www.w3.org/1999/xlink" width="200" height="200"><defs><style type="text/css"></style></defs><path d="M849.377483 935.84106c0 13.562914-13.562914 27.125828-30.516556 23.735099H205.139073c-13.562914 0-27.125828-10.172185-30.516556-23.735099V159.364238c0-6.781457 3.390728-13.562914 10.172185-20.34437 3.390728-3.390728 10.172185-3.390728 20.344371-3.390729h98.331126L279.735099 186.490066c-6.781457 16.953642 0 33.907285 13.562914 44.07947 3.390728 0 6.781457 3.390728 10.172186 3.390729H720.529801c16.953642 0 30.516556-13.562914 33.907285-30.516556 0-3.390728 0-10.172185-3.390728-13.562914L723.92053 135.629139h94.940397c13.562914 0 27.125828 10.172185 30.516556 23.735099v776.476822zM401.801325 64.423841h220.39735L669.668874 169.536424H354.331126l47.470199-105.112583z m417.059602 6.781457h-128.847682L669.668874 16.953642c-3.390728-10.172185-16.953642-16.953642-27.125828-16.953642H381.456954c-13.562914 0-23.735099 6.781457-30.516557 20.344371l-23.735099 50.860927H198.357616C150.887417 71.205298 110.198675 111.89404 110.198675 159.364238v773.086093c0 50.860927 40.688742 91.549669 91.549669 91.549669h617.112583c50.860927 0 91.549669-37.298013 94.940398-88.15894V159.364238c0-50.860927-44.07947-88.15894-94.940398-88.15894z" fill="#909399" p-id="3954"></path></svg>